<svg xmlns="http://www.w3.org/2000/svg" className="w-6 h-6" fill="currentColor" viewBox="0 0 24 24">
  <path d="M12 0c6.627 0 12 5.373 12 12 0 6.627-5.373 12-12 12C5.373 24 0 18.627 0 12 0 5.373 5.373 0 12 0zm-.353 9.684c-1.004-.01-1.878.787-1.889 1.801-.012 1.014.784 1.896 1.788 1.905 1.004.01 1.878-.787 1.889-1.801.011-1.014-.784-1.896-1.788-1.905zM12 4.318c-.668 0-1.204.545-1.204 1.204 0 .67.545 1.215 1.204 1.215.669 0 1.215-.545 1.215-1.215 0-.669-.546-1.204-1.215-1.204zM7.582 8.14c-.621 0-1.127.506-1.127 1.127s.506 1.127 1.127 1.127 1.127-.506 1.127-1.127-.506-1.127-1.127-1.127zm0 7.718c-.621 0-1.127.506-1.127 1.127 0 .621.506 1.127 1.127 1.127s1.127-.506 1.127-1.127c0-.621-.506-1.127-1.127-1.127zm8.836-7.718c-.621 0-1.127.506-1.127 1.127s.506 1.127 1.127 1.127 1.127-.506 1.127-1.127-.506-1.127-1.127-1.127zm0 7.718c-.621 0-1.127.506-1.127 1.127 0 .621.506 1.127 1.127 1.127s1.127-.506 1.127-1.127c0-.621-.506-1.127-1.127-1.127z"/>
</svg>
