<svg xmlns="http://www.w3.org/2000/svg" className="w-6 h-6" fill="currentColor" viewBox="0 0 24 24">
  <path d="M12 0C5.373 0 0 5.373 0 12c0 6.627 5.373 12 12 12 6.627 0 12-5.373 12-12 0-6.627-5.373-12-12-12zm0 2c5.522 0 10 4.478 10 10s-4.478 10-10 10S2 17.522 2 12 6.478 2 12 2zm-4.5 7l1.5 1.5L7 12l2 1.5L7.5 15l-1-1 2-1.5-2-1.5 1-1zm9 0l1.5 1.5L17 12l2 1.5-2.5 1.5-1-1 2-1.5-2-1.5 1-1zM12 7l1.5 1.5L12 10l-1.5-1.5L12 7zm0 7l1.5 1.5L12 17l-1.5-1.5L12 14zm3-3l1.5 1.5L15 12l1.5-1.5L15 9zm-6 0l1.5 1.5L9 12l1.5-1.5L9 9z"/>
</svg>
