<svg xmlns="http://www.w3.org/2000/svg" className="w-6 h-6" fill="currentColor" viewBox="0 0 24 24">
  <path d="M21 12c0-.56-.045-1.109-.131-1.649l2.131-2.132-2-2-2.132 2.132A8.957 8.957 0 0012 3a8.957 8.957 0 00-6.868 3.351L3 4.219 1.219 6l2.13 2.13c-.603 1.434-.937 3.004-.937 4.686s.334 3.252.937 4.686l-2.13 2.131L3 19.781l2.132-2.132A8.957 8.957 0 0012 21c1.683 0 3.252-.334 4.686-.937l2.132 2.13L21 19.781l-2.132-2.131c.603-1.434.937-3.004.937-4.686s-.334-3.252-.937-4.686L21 6.219l-1.781-1.781L17.351 7.87A8.974 8.974 0 0021 12zM12 18a6 6 0 110-12 6 6 0 010 12zM15 9h-6v2h6V9zm0 4h-6v2h6v-2z" />
</svg>
