<svg xmlns="http://www.w3.org/2000/svg" className="w-6 h-6" fill="currentColor" viewBox="0 0 24 24">
  <path d="M12 0C5.373 0 0 5.373 0 12s5.373 12 12 12 12-5.373 12-12S18.627 0 12 0zm.048 22.132c-5.575 0-10.095-4.537-10.095-10.136 0-5.57 4.51-10.093 10.075-10.136 5.576-.044 10.118 4.536 10.118 10.118 0 5.57-4.513 10.094-10.098 10.094zm.142-17.208c-.551 0-1.083.05-1.602.138.313.442.524.957.617 1.527.065.401.08.86.04 1.405-.158 2.093-1.53 5.795-2.086 7.31-.556 1.515-.356 2.774.68 4.054.896-1.63 1.6-3.472 2.165-5.48.263-.913.478-1.788.68-2.625.202-.836.294-1.513.556-1.713.074.114.18.37.193.427-.03.44-.405 1.072-.556 1.536-.154.464-.427.97-.41 1.235 0 .058.086.164.14.26.08.145.184.244.298.324.198.128.455.056.652-.022.216-.087.43-.177.628-.28.7-.356 1.406-.752 2.056-1.117.392-.214.796-.42 1.204-.62.428-.21.9-.297 1.353-.342.52-.05.965-.18 1.377-.6.36-.37.507-.896.567-1.43.048-.42.09-.833.116-1.257.02-.378-.04-.712-.128-1.045-.252-1.016-1.155-1.928-2.352-2.17-.646-.124-1.3-.118-1.96-.034-.578.074-1.124.27-1.68.448-.83.262-1.72.497-2.58.798-.266.095-.54.2-.793.357zm-.65 10.508c-.058.296-.122.588-.186.88-.19.843-.417 1.635-.67 2.412.425-.524.84-1.063 1.234-1.602.24-.32.502-.622.75-.936.24-.306.485-.628.686-.985.2-.358.365-.747.47-1.157.108-.41.177-.844.218-1.288.07-.73.068-1.45-.012-2.17-.104-.986-.312-1.945-.54-2.9-.154-.653-.41-1.282-.69-1.892-.275-.605-.585-1.192-.98-1.685-.217.477-.398.978-.58 1.48-.468 1.288-.942 2.582-1.4 3.88-.114.314-.214.63-.294.95-.115.476-.17.972-.31 1.456z"/>
</svg>
